<svg xmlns="http://www.w3.org/2000/svg" xmlns:xlink="http://www.w3.org/1999/xlink" width="32" height="35" viewBox="0 0 32 35">
    <defs>
        <path id="a" d="M0 .368h29.632V30H0z"/>
    </defs>
    <g fill="none" fill-rule="evenodd">
        <g transform="translate(0 5)">
            <mask id="b" fill="#fff">
                <use xlink:href="#a"/>
            </mask>
            <path fill="#F00" d="M29.632 15.184C29.632 23.367 22.998 30 14.816 30 6.633 30 0 23.367 0 15.184 0 7.002 6.633.368 14.816.368c8.182 0 14.816 6.634 14.816 14.816" mask="url(#b)"/>
        </g>
        <path fill="#5E01FA" d="M32 14.5C32 22.508 25.508 29 17.5 29S3 22.508 3 14.5 9.492 0 17.5 0 32 6.492 32 14.5"/>
        <path fill="#FFF" d="M16.715 16.733c.564-.782 1.089-.95 1.767-.448.659.487.68 1.059.116 1.841l-7.32 10.147c-.563.782-1.108.936-1.766.448-.64-.474-.68-1.059-.117-1.841l7.32-10.147z"/>
        <path fill="#FFF" d="M8.825 19.953c-.487.197-.902.249-1.343-.093-.494-.383-.643-1.188-.283-1.712.206-.299.54-.47.837-.586l8.485-3.325c.784-.313.932-.37 1.62.163l1.11.861c.795.615.778.717.73 1.77l-.415 9.523c-.014.334-.04.687-.247.986-.36.524-1.146.604-1.64.221-.583-.45-.49-1.097-.462-1.764l.42-9.49-8.812 3.446z"/>
    </g>
</svg>
