<svg xmlns="http://www.w3.org/2000/svg" width="426" height="323" viewBox="0 0 426 323">
    <defs>
        <linearGradient id="a" x1="2470%" x2="2470%" y1="2244%" y2="1076%">
            <stop offset="0%" stop-color="gray" stop-opacity=".25"/>
            <stop offset="54%" stop-color="gray" stop-opacity=".12"/>
            <stop offset="100%" stop-color="gray" stop-opacity=".1"/>
        </linearGradient>
        <linearGradient id="b" x1="3798%" x2="3798%" y1="2244%" y2="1076%">
            <stop offset="0%" stop-color="gray" stop-opacity=".25"/>
            <stop offset="54%" stop-color="gray" stop-opacity=".12"/>
            <stop offset="100%" stop-color="gray" stop-opacity=".1"/>
        </linearGradient>
        <linearGradient id="c" x1="5126%" x2="5126%" y1="2244%" y2="1076%">
            <stop offset="0%" stop-color="gray" stop-opacity=".25"/>
            <stop offset="54%" stop-color="gray" stop-opacity=".12"/>
            <stop offset="100%" stop-color="gray" stop-opacity=".1"/>
        </linearGradient>
        <linearGradient id="d" x1="35254%" x2="35254%" y1="25195%" y2="5593%">
            <stop offset="0%" stop-color="gray" stop-opacity=".25"/>
            <stop offset="54%" stop-color="gray" stop-opacity=".12"/>
            <stop offset="100%" stop-color="gray" stop-opacity=".1"/>
        </linearGradient>
        <linearGradient id="e" x1="23493%" x2="23493%" y1="16529%" y2="14465%">
            <stop offset="0%" stop-color="gray" stop-opacity=".25"/>
            <stop offset="54%" stop-color="gray" stop-opacity=".12"/>
            <stop offset="100%" stop-color="gray" stop-opacity=".1"/>
        </linearGradient>
        <linearGradient id="f" x1="28651%" x2="28651%" y1="13227%" y2="11164%">
            <stop offset="0%" stop-color="gray" stop-opacity=".25"/>
            <stop offset="54%" stop-color="gray" stop-opacity=".12"/>
            <stop offset="100%" stop-color="gray" stop-opacity=".1"/>
        </linearGradient>
        <linearGradient id="g" x1="34925%" x2="34925%" y1="10314%" y2="8251%">
            <stop offset="0%" stop-color="gray" stop-opacity=".25"/>
            <stop offset="54%" stop-color="gray" stop-opacity=".12"/>
            <stop offset="100%" stop-color="gray" stop-opacity=".1"/>
        </linearGradient>
        <linearGradient id="h" x1="40619%" x2="40619%" y1="16529%" y2="14465%">
            <stop offset="0%" stop-color="gray" stop-opacity=".25"/>
            <stop offset="54%" stop-color="gray" stop-opacity=".12"/>
            <stop offset="100%" stop-color="gray" stop-opacity=".1"/>
        </linearGradient>
        <linearGradient id="i" x1="46602%" x2="46602%" y1="13640%" y2="11577%">
            <stop offset="0%" stop-color="gray" stop-opacity=".25"/>
            <stop offset="54%" stop-color="gray" stop-opacity=".12"/>
            <stop offset="100%" stop-color="gray" stop-opacity=".1"/>
        </linearGradient>
        <linearGradient id="j" x1="35254%" x2="35254%" y1="28750%" y2="27478%">
            <stop offset="0%" stop-color="gray" stop-opacity=".25"/>
            <stop offset="54%" stop-color="gray" stop-opacity=".12"/>
            <stop offset="100%" stop-color="gray" stop-opacity=".1"/>
        </linearGradient>
        <linearGradient id="k" x1="35254%" x2="35254%" y1="30568%" y2="29296%">
            <stop offset="0%" stop-color="gray" stop-opacity=".25"/>
            <stop offset="54%" stop-color="gray" stop-opacity=".12"/>
            <stop offset="100%" stop-color="gray" stop-opacity=".1"/>
        </linearGradient>
        <linearGradient id="l" x1="35254%" x2="35254%" y1="32385%" y2="31113%">
            <stop offset="0%" stop-color="gray" stop-opacity=".25"/>
            <stop offset="54%" stop-color="gray" stop-opacity=".12"/>
            <stop offset="100%" stop-color="gray" stop-opacity=".1"/>
        </linearGradient>
        <linearGradient id="m" x1="35254%" x2="35254%" y1="34202%" y2="32930%">
            <stop offset="0%" stop-color="gray" stop-opacity=".25"/>
            <stop offset="54%" stop-color="gray" stop-opacity=".12"/>
            <stop offset="100%" stop-color="gray" stop-opacity=".1"/>
        </linearGradient>
        <linearGradient id="n" x1="85328%" x2="85328%" y1="79270%" y2="24648%">
            <stop offset="0%" stop-color="gray" stop-opacity=".25"/>
            <stop offset="54%" stop-color="gray" stop-opacity=".12"/>
            <stop offset="100%" stop-color="gray" stop-opacity=".1"/>
        </linearGradient>
    </defs>
    <g fill="none" fill-rule="evenodd" opacity=".797">
        <path fill="#DCD9E2" fill-rule="nonzero" d="M0 0h325v189H0z" opacity=".134"/>
        <path fill="#AEB0FF" fill-rule="nonzero" d="M4 3h317v10H4z"/>
        <path fill="#E4E5FF" fill-rule="nonzero" d="M4 13h317v172H4z"/>
        <circle cx="11.5" cy="7.5" r="2.5" fill="url(#a)" fill-rule="nonzero"/>
        <circle cx="17.5" cy="7.5" r="2.5" fill="url(#b)" fill-rule="nonzero"/>
        <circle cx="23.5" cy="7.5" r="2.5" fill="url(#c)" fill-rule="nonzero"/>
        <circle cx="11.5" cy="8.5" r="2.5" fill="#FF5252" fill-rule="nonzero"/>
        <circle cx="18.5" cy="8.5" r="2.5" fill="#FF0" fill-rule="nonzero"/>
        <circle cx="24.5" cy="8.5" r="2.5" fill="#69F0AE" fill-rule="nonzero"/>
        <path fill="url(#d)" fill-rule="nonzero" d="M73 26h187v92H73z"/>
        <path fill="#6C63FF" fill-rule="nonzero" d="M75 28h183v87H75z" opacity=".595"/>
        <path stroke="#FFF" stroke-dasharray="0" stroke-linecap="round" stroke-linejoin="round" d="M84 40v63"/>
        <path stroke="#FFF" stroke-linecap="round" stroke-linejoin="round" d="M84 107h161"/>
        <path stroke="#FFF" stroke-linecap="round" stroke-linejoin="round" d="M102 43h125M102 72h125M102 87h125" opacity=".3"/>
        <path fill="#FFF" fill-rule="nonzero" d="M111.079 108V72.792s-2.918-15.167 26.743-14.67c26.975-3.848 26.975-15.044 26.975-15.044s24.811-2.716 26.07 23.832a14.479 14.479 0 0 0 5.953 11.134c10.223 7.247 19.098-7.195 23.18-19.907V108H111.079z" opacity=".2"/>
        <circle cx="135" cy="58" r="4" fill="#6C63FF" fill-rule="nonzero"/>
        <circle cx="135" cy="58" r="4" fill="#FFF" fill-rule="nonzero" opacity=".5"/>
        <circle cx="111" cy="73" r="5" fill="url(#e)" fill-rule="nonzero"/>
        <circle cx="135" cy="58" r="5" fill="url(#f)" fill-rule="nonzero"/>
        <circle cx="165" cy="44" r="5" fill="url(#g)" fill-rule="nonzero"/>
        <circle cx="191" cy="73" r="5" fill="url(#h)" fill-rule="nonzero"/>
        <circle cx="220" cy="60" r="5" fill="url(#i)" fill-rule="nonzero"/>
        <circle cx="111" cy="73" r="4" fill="#6C63FF" fill-rule="nonzero"/>
        <circle cx="111" cy="73" r="4" fill="#000" fill-rule="nonzero" opacity=".2"/>
        <circle cx="165" cy="44" r="4" fill="#6C63FF" fill-rule="nonzero"/>
        <circle cx="165" cy="44" r="4" fill="#000" fill-rule="nonzero" opacity=".2"/>
        <circle cx="191" cy="73" r="4" fill="#6C63FF" fill-rule="nonzero"/>
        <circle cx="191" cy="73" r="4" fill="#FFF" fill-rule="nonzero" opacity=".5"/>
        <circle cx="220" cy="59" r="4" fill="#6C63FF" fill-rule="nonzero"/>
        <circle cx="220" cy="59" r="4" fill="#000" fill-rule="nonzero" opacity=".2"/>
        <path fill="url(#j)" fill-rule="nonzero" d="M74 129h185v6H74z"/>
        <path fill="url(#k)" fill-rule="nonzero" d="M74 138h185v6H74z"/>
        <path fill="url(#l)" fill-rule="nonzero" d="M74 146h185v6H74z"/>
        <path fill="url(#m)" fill-rule="nonzero" d="M74 155h185v6H74z"/>
        <path fill="#FFF" fill-rule="nonzero" d="M74 130h183v4H74zM74 139h183v4H74zM74 147h183v4H74zM74 156h183v4H74z"/>
        <path fill="url(#n)" fill-rule="nonzero" d="M421.053 225.238l-1.647-12.06-3.84-10.418-10.42-38.922-.099.042-.066.028c.18-.601.18-1.242 0-1.844-1.068-5.5-3.05-10.785-5.224-15.946-1.934-4.588-4.056-9.147-7.06-13.119l-.441-.574c.691.33 1.383.65 2.084.941a24.5 24.5 0 0 1 2.245 1.054l.358.207c.235.141.47.292.678.47.106.08.211.16.315.245.204.167.396.348.574.542.088.097.171.197.25.3.243.313.441.658.588 1.026.051.14.095.284.132.429.078.274.142.552.193.833.075.428.136.86.244 1.28.565 2.216 2.565 3.688 4.777 4.159a7.216 7.216 0 0 0 1.68.155 6.18 6.18 0 0 0 2.786-.701 5.026 5.026 0 0 0 1.587-1.327c1.802-2.3 1.788-5.576 3.322-8.065.796-1.284 1.972-2.305 2.683-3.637 2.174-4.089-.777-8.865-1.883-13.358-1.148-4.706-.207-9.595-.348-14.413-.297-9.99-5.46-19.55-13.102-25.997-7.643-6.446-17.574-9.88-27.556-10.488-6.07-.367-12.589.47-17.61 3.675-.344.221-.678.47-1.008.696l-.296.226a17.75 17.75 0 0 0-.71.574l-.283.245c-.31.278-.617.565-.908.866a20.28 20.28 0 0 0-2.066 2.536c-2.067 2.964-3.516 6.394-5.394 9.514-.144.238-.301.477-.47.715l-.16.24-.311.47-.212.297-.287.39-.245.32-.277.354-.269.324-.277.325-.292.325-.282.296-.311.32-.292.278c-.108.103-.212.207-.325.305a12.707 12.707 0 0 1-4.155 2.588c-.203.071-.405.137-.607.198l-.156.042c-.172.047-.348.091-.527.132l-.339.061-.4.066a8.658 8.658 0 0 1-.79.07c.07 1.412 1.812 1.605 3.336 1.238a5.837 5.837 0 0 0 1.064-.362c.748-.344 1.723-.89 2.824-1.52l.47-.273 1.003-.57.518-.29 1.063-.589a54.138 54.138 0 0 1 1.633-.866l.18-.09a13.54 13.54 0 0 0 4.654 20.008v4.206h-1.412c-1.241 0-2.448.41-3.431 1.167-.852.344-1.883.777-2.927 1.304-.34.17-.688.343-1.036.527l-.527.282c-.353.193-.701.395-1.05.607-.696.423-1.388.88-2.037 1.37a15.11 15.11 0 0 0-2.593 2.413 4.64 4.64 0 0 1-.471.47c-.057.052-.118.095-.174.142a6.769 6.769 0 0 1-.33.254l-.23.146c-.104.06-.203.122-.31.174l-.274.132-.292.117c-.108.043-.211.08-.32.118l-.24.07a9.118 9.118 0 0 1-1.614.292c-1.99.184-4.236-.103-6.245-.179h-.899c-6.8.029-13.733.16-20.538.193l-33.33-.795-1.078-.023h-.55v-.273h-30.709c-1.341.894-.499 1.788-.136 2.084.121.144.26.272.414.381l7.671 1.595-.574.941-.39-.084-.942 1.595c.47.564.908 1.05 1.337 1.482 6.866 7.246 9.356-1.21 9.356-1.21l14.255 1.648 17.681 2.602 17.414 2.602v-.038c.527.24 1.233.16 1.882.32 6.65 1.619 13.47 1.562 20.308 1.623h2.226c.725.021 1.448.103 2.16.245.274.057.544.131.81.221.91.268 1.684.87 2.17 1.685.333.703.53 1.463.583 2.24l1.186 9.062c.084.65.17 1.308.207 1.967 0 .244.023.47.028.729a7.174 7.174 0 0 1-.419 2.62 7.095 7.095 0 0 1-.734 1.389c-.193.292-.405.574-.617.856-.211.283-.437.555-.654.838l-.32.419a19.042 19.042 0 0 0-2.15 3.656 19.99 19.99 0 0 0-1.704 9.326c.022.354.053.707.094 1.058.08.704.202 1.404.362 2.094.06.265.137.526.23.781.107.295.266.568.471.805 0 .023.038.056.062.08.113.112.24.21.376.292.086.052.176.1.268.14.18.081.365.144.556.189.23.052.465.088.701.108h.306-.15l-3.027 51.354s-4.937 3.84-.55 6.587h.531l-4.913 73.728s-3.294 3.294-13.71 0c-2.032-.64-2.851-.301-2.748.602-.372 2.847 12.208 13.914 23.532 12.3a6.654 6.654 0 0 0 5.59-5.595l11.634-81.204c.471-.47 1.615-1.98-.178-4.235l5.487-42.766 3.84 42.762s-3.623 1.035-.809 4.112c0 0-7.13 10.963 34.544 66.881 0 0 3.294 3.294-1.647 9.882 0 0-5.483 0-4.386 4.385h.211c0 .09.033.179.057.273h9.883s9.323-10.964 8.773-13.707c-.551-2.743-28.516-60.303-28.516-60.303V236.2h1.647s2.194-1.096 0-4.385l-.786-51.1a2.893 2.893 0 0 0-.545-1.652 33.204 33.204 0 0 0-.984-23.108c-.941-2.258-2.188-4.45-2.56-6.879-.372-2.428.353-5.241 2.475-6.47l13.032 27.202.033.061c.1.235.238.451.41.64.064.064.137.12.216.165a.941.941 0 0 0 .315.103h.061l15.197 36.363 6.033 11.514 1.648 13.706 6.033 6.033h.296l.189-.029c.47-.094 1.148-.343 1.148-1.044 0 0 1.647-.55 1.647-1.647 0 0 2.193-.55 2.193-1.647A1.61 1.61 0 0 0 426 232.38l-4.947-7.142zM363.481 109.19a13.178 13.178 0 0 0 2.354-1.538 22.744 22.744 0 0 0 2.531 4.672c.438.635.895 1.256 1.36 1.882.189.24.382.47.57.715a18.595 18.595 0 0 0-1.52-.4l-.155-.028-.471-.09a5.62 5.62 0 0 0-3.186-.987h-1.483v-4.226z"/>
        <path fill="#9597CD" fill-rule="nonzero" d="M333.877 178.492L331 227.887 349.296 230l5.226-41.206L358.18 230H377l-.748-49.239c-.024-1.545-1.279-2.78-2.807-2.76l-39.568.49z"/>
        <g fill="#FFF" fill-rule="nonzero" opacity=".2">
            <path d="M335.105 179.71l39.656-.469h.108a2.762 2.762 0 0 0-2.203-1.054l-39.657.469-2.882 48.945 2.142.244 2.836-48.135z"/>
            <path d="M353.962 189.13l.652 9.96 2.752 30.605h2.001z"/>
        </g>
        <path fill="#9597CD" fill-rule="nonzero" d="M357.447 234s-6.884 10.542 33.354 64.298c0 0 3.175 3.16-1.587 9.485 0 0-5.292 0-4.235 4.217h9.527s9.002-10.542 8.471-13.174c-.53-2.632-27.526-57.973-27.526-57.973V234h-18.004z"/>
        <path fill="#FFF" fill-rule="nonzero" d="M391.371 307.783c4.772-6.325 1.59-9.485 1.59-9.485C352.675 244.528 359.563 234 359.563 234h-2.116s-6.893 10.542 33.396 64.298c0 0 3.179 3.16-1.589 9.485 0 0-5.299 0-4.24 4.217h2.12c-1.082-4.217 4.236-4.217 4.236-4.217z" opacity=".2"/>
        <path fill="#9597CD" fill-rule="nonzero" d="M330.42 233.795l-4.707 70.95s-3.137 3.15-13.078 0c-8.87-2.823 6.405 14.025 19.835 12.102a6.364 6.364 0 0 0 5.338-5.363L349 233l-18.58.795z"/>
        <path fill="#FFF" fill-rule="nonzero" d="M314.774 306.97c10.037 3.147 13.205 0 13.205 0L333 234h-2.364l-4.766 70.871s-3.167 3.147-13.205 0c-4.255-1.33-3.011 1.738.89 5.129-2.067-2.41-2.105-4.077 1.219-3.03z" opacity=".2"/>
        <rect width="25" height="21" x="344" y="116" fill="#6C63FF" fill-rule="nonzero" rx="10.5"/>
        <circle cx="356.5" cy="100.5" r="12.5" fill="#E2BB9B" fill-rule="nonzero"/>
        <path fill="#E6C7B0" fill-rule="nonzero" d="M354.984 108h4.027c2.203 0 3.989 1.666 3.989 3.722v5.267c0 2.767-2.404 5.011-5.37 5.011h-1.26c-2.966 0-5.37-2.244-5.37-5.011v-5.267c0-2.054 1.783-3.72 3.984-3.722z"/>
        <path fill="#339" fill-rule="nonzero" d="M273 125l33.476.793L307 138l-34-5.04z" opacity=".6"/>
        <path fill="#EDD9CE" fill-rule="nonzero" d="M243.697 125H273v7.669l-13.605-1.533s-2.618 8.694-9.942 0l1.569-2.558-7.325-1.533s-1.569-1.02 0-2.045z"/>
        <path fill="#339" fill-rule="nonzero" d="M388 171.38L402.894 207 413 202.746 402.894 165z" opacity=".602"/>
        <path fill="#EAD1C1" fill-rule="nonzero" d="M403 206.18l5.79 10.99 1.579 13.076 5.79 5.754s1.578 0 1.578-1.044c0 0 1.578-.524 1.578-1.569 0 0 2.106-.524 2.106-1.568a1.55 1.55 0 0 0 1.126-.45c.298-.295.462-.7.453-1.118l-4.74-6.803-1.578-11.508-3.685-9.94-9.997 4.18z"/>
        <path fill="#AEB0FF" fill-rule="nonzero" d="M330.31 228s-4.82 3.499-.536 6h19.274s2.142-1.499 0-4l-18.738-2zM357.831 230s-3.736.998-.535 4h19.755s2.136-.998 0-4h-19.22z" opacity=".531"/>
        <path fill="#000" fill-rule="nonzero" d="M274.023 132.96v-7.936L273 125v7.96l33 5.04-.01-.157zM402.894 165l-.095.038 9.668 36.114-10.106 4.254-14.247-34.078-.114.053L402.894 207 413 202.746z" opacity=".2"/>
        <path fill="#FFF" fill-rule="nonzero" d="M346.848 100.498c0-6.395 4.812-11.758 11.152-12.43a12.56 12.56 0 0 0-1.296-.066 12.455 12.455 0 0 0-10.994 6.178 12.532 12.532 0 0 0 0 12.64 12.455 12.455 0 0 0 10.994 6.178c.433 0 .865-.022 1.296-.066-6.342-.672-11.155-6.038-11.152-12.434z" opacity=".2"/>
        <g fill="#FFF" fill-rule="nonzero" opacity=".2">
            <path d="M244.661 125.753h28.244v-1.587h-29.841c-1.598 1.056 0 2.117 0 2.117l.953.2c.13-.306.357-.562.644-.73zM250.523 132.09l1.597-2.647-2.265-.474-.954 1.54c.654.802 1.375 1.548 2.156 2.23-.158-.208-.344-.416-.534-.648z"/>
        </g>
        <path fill="#F00" fill-rule="nonzero" d="M350.28 128.961c3.81 2.181 8.404 2.473 12.787 2.257a6.81 6.81 0 0 0 3-.636c2.62-1.451.984-10.096.424-13.04 9.077.99 19.103 10.736 24.61 18.029 2.879 3.81 4.915 8.192 6.768 12.597 2.088 4.956 3.983 10.03 5.009 15.31a3.01 3.01 0 0 1-.038 1.819c-.31.683-1.063 1.036-1.75 1.338l-11.48 4.951c-.47.207-1.058.415-1.518.156a1.747 1.747 0 0 1-.63-.83l-12.492-26.117c-2.036 1.182-2.732 3.882-2.351 6.214.38 2.332 1.533 4.437 2.455 6.595a31.935 31.935 0 0 1 .88 22.396 1179.225 1179.225 0 0 1-41.49-.862c-.889-.033-1.881-.108-2.497-.744a3.272 3.272 0 0 1-.725-1.597 19.016 19.016 0 0 1 3.25-15.49c.81-1.079 1.75-2.097 2.23-3.36.61-1.606.4-3.396.173-5.106l-1.133-8.706a5.958 5.958 0 0 0-.56-2.153c-1.039-1.884-3.602-2.058-5.747-2.082-6.993-.085-13.977.085-20.772-1.573-.88-.212-1.84.028-2.314-.745a3.61 3.61 0 0 1-.344-2.016c.066-2.714 0-6.906.061-9.62 6.65-.028 13.432-.16 20.082-.188 3.71 0 8.555 1.215 10.916-1.654 3.682-4.47 12.09-7.104 12.09-7.104s-2.134 10.11 1.106 11.961z" opacity=".186"/>
        <path stroke="#FFF" stroke-width="2" d="M357 131l-1 47"/>
        <g fill="#FFF" fill-rule="nonzero" opacity=".427">
            <path d="M366.172 130.554c1.033.02 2.058-.2 2.996-.64 2.428-1.356 1.192-8.955.554-12.406-1.07-.35-2.17-.591-3.287-.721.558 2.963 2.193 11.662-.423 13.122-.938.44-1.962.66-2.996.64l-.625.024c1.268.066 2.531.052 3.78-.019zM340.197 123.415c2.156-2.641 5.936-4.642 8.693-5.846.127-.801.23-1.304.23-1.304s-8.397 2.65-12.074 7.15c-1 1.223-2.447 1.701-4.062 1.853 2.799.166 5.593.133 7.213-1.853zM390.53 170.5l-12.473-26.283a4.755 4.755 0 0 0-1.99 2.456l11.308 23.836c.12.336.34.627.629.834.47.261 1.028.053 1.517-.156l1.103-.474-.094-.213zM337.581 178.791c-.887-.033-1.878-.109-2.493-.749a3.305 3.305 0 0 1-.723-1.607 19.253 19.253 0 0 1 3.245-15.588c.807-1.085 1.747-2.11 2.226-3.38.61-1.616.399-3.418.173-5.139l-1.136-8.756a6.038 6.038 0 0 0-.559-2.166c-1.038-1.897-3.597-2.072-5.739-2.096-6.983-.085-13.956.086-20.742-1.583-.879-.214-1.837.028-2.31-.75a3.657 3.657 0 0 1-.344-2.028c.066-2.73 0-6.95.061-9.68 5.885-.025 11.863-.129 17.77-.176h-.864c-6.64.028-13.412.16-20.052.19-.066 2.73 0 6.95-.061 9.68-.082.696.037 1.4.343 2.029.47.773 1.437.531 2.31.749 6.786 1.664 13.76 1.493 20.743 1.583 2.137.029 4.696.214 5.739 2.096.32.68.509 1.415.559 2.166l1.131 8.761c.221 1.716.437 3.518-.173 5.14-.47 1.27-1.41 2.294-2.226 3.38a19.253 19.253 0 0 0-3.245 15.587c.091.592.341 1.148.723 1.607.624.64 1.606.716 2.493.75 13.804.533 27.614.822 41.43.867v-.024c-12.761-.089-25.52-.376-38.279-.863z"/>
        </g>
        <path fill="#48446F" fill-rule="nonzero" d="M360.074 99.553c.625.194 1.307.137 1.932.33 2.482.783 2.127 4.281 2.18 6.87.075 3.912 2.24 7.467 4.636 10.565a60.559 60.559 0 0 0 23.8 18.429c1.894.825 4.068 1.74 4.831 3.673.234.8.418 1.614.55 2.437 1.089 4.243 7.724 5.658 10.452 2.197 1.743-2.211 1.724-5.36 3.207-7.746.767-1.23 1.894-2.216 2.586-3.493 2.098-3.928-.748-8.515-1.814-12.838-1.108-4.498-.199-9.217-.336-13.847-.29-9.599-5.272-18.787-12.646-24.987-7.375-6.2-16.956-9.486-26.59-10.066-7.209-.434-15.066.877-20.091 6.04-3.183 3.272-4.84 7.68-7.2 11.579-2.358 3.899-6 7.614-10.571 7.797.085 1.707 2.685 1.556 4.263.84 3.315-1.518 11.106-7.044 14.815-5.945 3.708 1.098 2.415 6.831 5.996 8.165z" opacity=".879"/>
        <g fill="#FFF" fill-rule="nonzero" opacity=".2">
            <path d="M347.873 86.965c2.34-3.897 3.968-8.292 7.113-11.558.312-.314.635-.627.969-.941a16.973 16.973 0 0 0-3.06 2.503c-3.145 3.266-4.783 7.666-7.113 11.558a21.156 21.156 0 0 1-3.796 4.758c2.415-1.454 4.409-3.85 5.887-6.32zM399.675 140.038a19.974 19.974 0 0 0-.543-2.433c-.753-1.925-2.882-2.824-4.773-3.666a59.946 59.946 0 0 1-23.514-18.405c-2.368-3.092-4.511-6.645-4.581-10.546-.047-2.583.3-6.075-2.153-6.856-.618-.198-1.291-.137-1.91-.33-3.537-1.336-2.227-7.058-5.937-8.15-3.711-1.092-11.376 4.419-14.638 5.934-1.1.513-2.728.73-3.594.193a8.848 8.848 0 0 1-2.69.546c.084 1.703 2.653 1.553 4.211.837 3.276-1.515 10.974-7.03 14.638-5.934 3.664 1.097 2.4 6.814 5.938 8.15.618.194 1.291.137 1.91.33 2.451.781 2.1 4.273 2.152 6.857.075 3.906 2.213 7.454 4.58 10.546a59.946 59.946 0 0 0 23.497 18.395c1.871.823 4.02 1.736 4.773 3.666.231.799.412 1.611.542 2.433 1.077 4.235 7.633 5.647 10.328 2.193l.038-.057c-3.089 1.257-7.436-.315-8.274-3.703z"/>
        </g>
        <path fill="#FFF" fill-rule="nonzero" d="M411.11 230.247l-1.62-13.075-5.948-10.987 9.804-3.993-.072-.192L403 206.185l5.947 10.987 1.622 13.075 5.947 5.753c.163-.004.324-.021.484-.051l-5.89-5.702zM404.489 204.95L389.728 170l-1.728.735L402.894 206 413 201.789l-.095-.35z" opacity=".2"/>
    </g>
</svg>
